<?xml version="1.0" encoding="UTF-8"?>
<svg id="Layer_1" data-name="Layer 1" xmlns="http://www.w3.org/2000/svg" xmlns:xlink="http://www.w3.org/1999/xlink" viewBox="0 0 772.25 472.2">
  <defs>
    <style>
      .cls-1 {
        fill: #003855;
      }

      .cls-1, .cls-2 {
        stroke: #fff;
        stroke-miterlimit: 10;
      }

      .cls-3 {
        fill: url(#linear-gradient-7);
      }

      .cls-4 {
        fill: url(#linear-gradient-5);
      }

      .cls-5 {
        fill: url(#linear-gradient-6);
      }

      .cls-6 {
        fill: url(#linear-gradient-4);
      }

      .cls-7 {
        fill: url(#linear-gradient-3);
      }

      .cls-8 {
        fill: url(#linear-gradient-2);
      }

      .cls-2 {
        fill: none;
      }

      .cls-9 {
        fill: url(#linear-gradient);
      }

      .cls-10 {
        fill: #fff;
      }
    </style>
    <linearGradient id="linear-gradient" x1="312.28" y1="422.99" x2="372.87" y2="318.04" gradientTransform="translate(-48.73 87.94) rotate(-9.35)" gradientUnits="userSpaceOnUse">
      <stop offset="0" stop-color="#ff36f1"/>
      <stop offset=".16" stop-color="#ff3df1"/>
      <stop offset=".4" stop-color="#ff51f4"/>
      <stop offset=".68" stop-color="#ff72f8"/>
      <stop offset="1" stop-color="#ffa0ff"/>
    </linearGradient>
    <linearGradient id="linear-gradient-2" x1="605.6" y1="404.46" x2="653.91" y2="320.78" xlink:href="#linear-gradient"/>
    <linearGradient id="linear-gradient-3" x1="405.16" y1="419.12" x2="450.54" y2="340.53" xlink:href="#linear-gradient"/>
    <linearGradient id="linear-gradient-4" x1="488.71" y1="407.11" x2="532.58" y2="331.13" xlink:href="#linear-gradient"/>
    <linearGradient id="linear-gradient-5" x1="661.3" y1="383.89" x2="714.48" y2="291.77" xlink:href="#linear-gradient"/>
    <linearGradient id="linear-gradient-6" x1="544.07" y1="401" x2="583.78" y2="332.21" xlink:href="#linear-gradient"/>
    <linearGradient id="linear-gradient-7" x1="556.42" y1="318.05" x2="570.38" y2="293.89" gradientTransform="translate(-76.09 88.78) rotate(-9.35) scale(1.05 1.01)" xlink:href="#linear-gradient"/>
  </defs>
  <path class="cls-2" d="M630.75.5h-35.5l-48,115.01L501.71,1.5c-12.06,2.99-24.66-1.01-36.96,0l58.16,141.83,44.4,1.22c1.25.09,2.03-.22,2.96-1.04,1-.89,5.61-11.94,6.66-14.34,18.67-42.54,34.87-86.25,53.82-128.68ZM145.75,1.5c-28.87-.59-57.67,1.25-86.55,1.05C34.3,2.38,4.66-3.66,1.77,31.02c-1.85,22.18-1.5,58.61-.06,81.03,1,15.5,7.24,29.58,24.54,31.46,31.7,3.45,69.57-2.52,101.92-.09,7.29-1.7,13.44-5.35,16.77-12.23.53-1.09,2.82-7.59,2.82-8.18v-63c-.88-1.43-1.99-1.38-3.45-1.55-16.58-1.95-35.44,1.11-52.05,1.11-6.79,0-13.46-2.52-20.5-.06v28h44v23.5c0,.61-3.98,4.18-5.45,3.55-21.03-2.04-46.64,2.54-67.09,0-5.02-.62-6.11-2.95-6.5-7.5-1.87-22.09,1.52-46.72,0-69.09-.7-1.97,3.34-5.45,4.55-5.45h104.5V1.5ZM169.75,1.5v143h32.5l1.5-1.5v-46.5c13.59,2.91,27.84-1.62,41.8.21l30.7,47.79h38.5l-31.99-47.51c19.75-3.85,28.04-14.21,28.62-34.16.32-11.03,1.05-31.35-2.15-41.3-7.73-24.08-37.82-20.26-58.01-20.07-25.52.24-51.33,1.74-77.02,1.1-1.7-.04-2.94-.33-4.44-1.06ZM323.75,144.5h36l10.61-25.06,72.73.02,10.82,24.88,36.84-.84L430.55,2.71c-1.67-2.4-40.08-1.04-45.82-.73l-60.98,142.52ZM769.75,1.5h-106.5c-1.74,0-9.35,2.7-11.21,3.79-6.66,3.91-10.83,12.08-11.33,19.67,2.57,30.72-3.37,66.85.14,96.93.77,6.57,3.93,13.73,9.56,17.44,1.54,1.02,8.46,4.17,9.83,4.17h111.5v-30h-95.5c-.36,0-.81,1.63-1.5.51l-.98-1.01c.04-.38.98-.69.98-1v-24c0-.3-1.27-.77-1-1.5h84.5l1.5-1.5v-27l-86-.5v-26c.73-.27,1.2,1,1.5,1h94.5V1.5ZM257.75,169.5c-11.49,2.35-22.49-.3-34,0l1.5,143h32.5v-143ZM447.75,170.5h-39.5c-.21,0-.71-.85-1.52-.53l-41.5,55.54-41.52-52.52-.96-2.49h-41l55.9,71.36-58.9,70.64h40.5l43.01-53.01,19.45,23.55,22.25,29.24,42.79.22-57.96-70.49,58.96-71.5ZM727.75,281.5h-78.5c-.23,0-.77,1.24-1.54.57-.55-.34-.96-2.44-.96-3.07v-109.5c-.73-.27-1.2,1-1.5,1h-32.5v120.5c0,2.57,4.03,10.85,6.01,12.99s10.93,7.51,13.49,7.51h95.5v-30ZM174.25,170.5H58.75l.15,140.34c.95,2.97,4.86.67,7.31.61,8.17-.21,17.11-.35,25.08.8l1.46-1.26v-43.5h80.5c2.93,0,14.07-6.35,16.5-8.79,11.37-11.43,10.28-42.22,8.98-57.7-1.18-14.03-9.36-28.37-24.48-30.52ZM590.75,170.5h-110.5c-.61,0-7.76,3.45-8.83,4.17-11.99,8.04-9.9,26.56-9.71,39.37.36,23.8-1.05,54.09,1,77,.65,7.25,5.07,14.03,11.51,17.49,1.23.66,7.18,2.97,8.03,2.97h109.5v-30h-96v-27h84v-29h-85v-25h94.5l1.5-1.5v-28.5ZM709.71,323.97c-.82-1.01-1.79-8.97-2.04-11.09-2.15-18.29-2.15-58.94-11.14-73.06-8.05-12.63-24.81-12.13-36.85-5.74-18.1,9.61-14.28,30.48-11.89,47.6-4.69-1.31-7.77,1.68-12.23,1.96-3.92.25-8.66-1.34-13.38-.81-14.67,1.63-27.52,10.01-36.56,21.26,1.99-12.29-2.61-24.93-13.9-30.98-26.65-14.26-54.58,12.16-40.54,38.93-25.64-5.95-50.68,7.73-62.36,30.53-23.68-17.62-58.64-10.21-75.31,13.44,1.13-21.07-19.27-32.63-38-33.78-47.44-2.89-83.94,44.79-51.46,86.32,1.66,2.13,6.12,5.03,6.1,7.28-14.82,10.87-16.55,31.98-2.34,44.51,24.16,21.31,82.78,11.52,96.07-19.89l1.45-.24c1.48,2.99,6.68,5.03,9.87,6.27,25.92,10.08,57.2-2.46,67.64-28.16,2.39-1.1,1.98,1.07,4.01,2.22,22.5,12.8,46.83,7.98,65.2-9.56,16.33,8.86,38.54,4.16,47.55-12.75,11.58,5.41,24.88,4.55,36.34-1.06,3.07-1.5,8.41-6.02,10.28-6.59,3.25-.99,11.76.62,18.52-1.47,4.77-1.47,13.04-8.57,14.02-8.79.63-.15,9.59,2.44,12.8,2.35,28.31-.77,50.05-36.28,25.61-55.13-1.53-1.18-7.1-3.13-7.45-3.55Z"/>
  <path class="cls-1" d="M145.75,1.5v31H41.25c-1.21,0-5.25,3.48-4.55,5.45,1.52,22.37-1.86,47.01,0,69.09.39,4.55,1.48,6.88,6.5,7.5,20.45,2.55,46.07-2.03,67.09,0,1.46.63,5.45-2.94,5.45-3.55v-23.5h-44v-28c7.04-2.46,13.71.06,20.5.06,16.61,0,35.47-3.06,52.05-1.11,1.46.17,2.57.12,3.45,1.55v63c0,.59-2.3,7.09-2.82,8.18-3.32,6.89-9.48,10.53-16.77,12.23-32.35-2.42-70.22,3.54-101.92.09-17.29-1.88-23.54-15.96-24.54-31.46C.27,89.62-.08,53.19,1.77,31.02,4.66-3.66,34.3,2.38,59.2,2.55c28.88.2,57.68-1.64,86.55-1.05Z"/>
  <path class="cls-1" d="M169.75,1.5c1.5.73,2.74,1.02,4.44,1.06,25.68.64,51.49-.86,77.02-1.1,20.19-.19,50.28-4.01,58.01,20.07,3.2,9.96,2.47,30.27,2.15,41.3-.57,19.96-8.87,30.31-28.62,34.16l31.99,47.51h-38.5l-30.7-47.79c-13.96-1.83-28.21,2.71-41.8-.21v46.5l-1.5,1.5h-32.5V1.5ZM203.75,68.5h66.5c2.27,0,6.01-3.88,6.44-6.56.76-4.82.67-19.94.08-24.96-.26-2.25-.74-3.95-2.52-5.48h-69c-.3,0-.77-1.27-1.5-1v38Z"/>
  <path class="cls-1" d="M769.75,1.5v31h-94.5c-.3,0-.77-1.27-1.5-1v26l86,.5v27l-1.5,1.5h-84.5c-.27.73,1,1.2,1,1.5v24c0,.31-.95.62-.98,1l.98,1.01c.69,1.12,1.14-.51,1.5-.51h95.5v30h-111.5c-1.37,0-8.29-3.15-9.83-4.17-5.63-3.71-8.79-10.87-9.56-17.44-3.51-30.07,2.43-66.21-.14-96.93.5-7.59,4.67-15.76,11.33-19.67,1.86-1.09,9.47-3.79,11.21-3.79h106.5Z"/>
  <path class="cls-1" d="M590.75,170.5v28.5l-1.5,1.5h-94.5v25h85v29h-84v27h96v30h-109.5c-.85,0-6.8-2.3-8.03-2.97-6.44-3.46-10.86-10.25-11.51-17.49-2.05-22.91-.64-53.2-1-77-.19-12.82-2.28-31.33,9.71-39.37,1.07-.72,8.22-4.17,8.83-4.17h110.5Z"/>
  <path class="cls-1" d="M174.25,170.5c15.13,2.14,23.31,16.49,24.48,30.52,1.3,15.48,2.38,46.27-8.98,57.7-2.43,2.44-13.57,8.79-16.5,8.79h-80.5v43.5l-1.46,1.26c-7.98-1.15-16.91-1.02-25.08-.8-2.45.06-6.36,2.36-7.31-.61l-.15-140.34h115.5ZM92.75,238.5h65.5c2.7,0,6.17-3.49,6.55-6.45.64-4.95.66-22.18-.11-26.99-.32-1.97-2.48-5.56-4.44-5.56h-67.5v39Z"/>
  <path class="cls-1" d="M323.75,144.5L384.73,1.98c5.74-.31,44.15-1.67,45.82.73l60.2,140.78-36.84.84-10.82-24.88-72.73-.02-10.61,25.06h-36ZM382.75,89.5h49l-25.49-56.01-23.51,56.01Z"/>
  <path class="cls-1" d="M447.75,170.5l-58.96,71.5,57.96,70.49-42.79-.22-22.25-29.24-19.45-23.55-43.01,53.01h-40.5l58.9-70.64-55.9-71.36h41l.96,2.49,41.52,52.52,41.5-55.54c.8-.32,1.31.53,1.52.53h39.5Z"/>
  <path class="cls-1" d="M630.75.5c-18.95,42.42-35.16,86.13-53.82,128.68-1.05,2.4-5.66,13.45-6.66,14.34-.93.83-1.71,1.13-2.96,1.04l-44.4-1.22L464.75,1.51c12.3-1.01,24.9,2.99,36.96,0l45.54,114.01L595.25.5h35.5Z"/>
  <path class="cls-1" d="M727.75,281.5v30h-95.5c-2.56,0-11.49-5.33-13.49-7.51s-6.01-10.42-6.01-12.99v-120.5h32.5c.3,0,.77-1.27,1.5-1v109.5c0,.63.42,2.73.96,3.07.77.67,1.31-.57,1.54-.57h78.5Z"/>
  <path class="cls-1" d="M257.75,169.5v143h-32.5l-1.5-143c11.52-.3,22.51,2.34,34,0Z"/>
  <path class="cls-2" d="M203.75,68.5V30.5c.73-.27,1.2,1,1.5,1h69c1.78,1.53,2.26,3.23,2.52,5.48.59,5.02.68,20.14-.08,24.96-.43,2.69-4.16,6.56-6.44,6.56h-66.5Z"/>
  <path class="cls-2" d="M92.75,238.5v-39h67.5c1.96,0,4.12,3.59,4.44,5.56.77,4.81.75,22.04.11,26.99-.38,2.96-3.85,6.45-6.55,6.45h-65.5Z"/>
  <polygon class="cls-2" points="382.75 89.5 406.26 33.49 431.75 89.5 382.75 89.5"/>
  <path class="cls-10" d="M709.71,323.97c.34.42,5.92,2.37,7.45,3.55,24.44,18.85,2.7,54.36-25.61,55.13-3.21.09-12.17-2.49-12.8-2.35-.98.23-9.25,7.32-14.02,8.79-6.76,2.09-15.27.48-18.52,1.47-1.87.57-7.21,5.09-10.28,6.59-11.46,5.61-24.76,6.47-36.34,1.06-9.01,16.91-31.22,21.62-47.55,12.75-18.37,17.54-42.7,22.36-65.2,9.56-2.02-1.15-1.61-3.32-4.01-2.22-10.45,25.7-41.72,38.25-67.64,28.16-3.19-1.24-8.39-3.28-9.87-6.27l-1.45.24c-13.28,31.41-71.91,41.2-96.07,19.89-14.21-12.54-12.48-33.64,2.34-44.51.02-2.25-4.44-5.15-6.1-7.28-32.48-41.53,4.02-89.2,51.46-86.32,18.73,1.14,39.14,12.7,38,33.78,16.67-23.64,51.63-31.05,75.31-13.44,11.68-22.8,36.72-36.48,62.36-30.53-14.04-26.77,13.89-53.19,40.54-38.93,11.29,6.04,15.89,18.69,13.9,30.98,9.04-11.24,21.89-19.63,36.56-21.26,4.72-.52,9.45,1.06,13.38.81,4.47-.28,7.55-3.27,12.23-1.96-2.39-17.12-6.21-37.99,11.89-47.6,12.04-6.4,28.8-6.89,36.85,5.74,8.99,14.12,9,54.77,11.14,73.06.25,2.12,1.22,10.09,2.04,11.09ZM661.82,253.02c-.22,1.08-.52,2.7-.77,4.67-2.24,17.29,4.81,27.17,6.9,41.49,2.57,17.65,3.24,37.04,7.91,54.38,7.39,27.43,46.29,10.02,33.98-12.2-2.71-1.98-6.92,2.28-10.76,1.66-1.33-.13-1.61-.97-2-2.06-1.9-5.27-3.45-19.39-4.27-25.69-1.92-14.82-2.3-9.93-3.45-39.89-.53-13.94,0-18.36-3.62-21.75-6.23-5.82-18.21-2.54-23.92-.61ZM559.13,284.58c-22.9-1.27-18.79,26.97-4.92,27.49,14.68.55,21.97-9.33,14.33-22.41M359.66,361.92c1.66.98,2.39,3.36,5.33,4.08,11.59,2.86,18.82-13.96,7.06-23.19-19.74-15.49-62.17,1.63-65.15,27.23-1.94,16.68,7.84,34.31,25.11,37.1,11.03,1.78,43.47-6.23,39.27,12.55-3.29,14.67-28.27,16.08-39.45,10.75-2.09-1-4.64-3.97-6.54-4.22-10.61-1.4-15.97,13.11-8.38,21.4,13.92,15.21,50.8,9.4,65.17-2.78,18.74-15.88,11.64-57.26-15.08-62.21-9.26-1.72-29.91,2.28-35.46-2.72-6.43-5.81.26-14.05,6.5-17.11,6.65-3.26,14.96-4.81,21.62-.87ZM667.93,355.52c-.79-.86-5.95.74-7.51-3.48-3.73-15.28-1.92-32.64-5.81-47.71-2.38-9.2-9.21-4.68-17.33-4.96-9.03-.31-13.73-2.31-23.12,1.27-35.86,13.66-37.47,95.88,8.61,85.4,10.33-2.35,15.32-9.2,21.72-16.67,4.56,11.55,25.28,5.52,24.98-5.58-.03-1.28-1.1-7.8-1.54-8.27ZM572.37,317.67c-4.47-3.42-20.5,1.49-24.01,6.3,1.98,2.82,3.88,4.68,4.47,8.32,2.86,17.51-.13,42.58,4.58,59.04,4.91,17.16,28.73,4.33,28.48,1.41-2.29-2.54-3.47-5.08-4.33-8.39-4.44-17.15-3.25-35.42-5.57-52.8-.42-3.15-1.42-12.21-3.61-13.88ZM521.64,348.38c3.67,2.8,2.96,7.45,10.21,7.06,16.44-.89,10.99-21.07-.03-26.71-9.74-4.99-22.62-2.7-31.98,2.19-26.26,13.71-29.73,63.01-2.87,77.95,14.2,7.9,35.11,3.16,45.01-9.45,6.08-7.74,10.39-26.78-4.42-24.48-.16,11.98-13.19,19.01-24.33,17.31-17.19-2.62-15.09-47.42,3.79-45.41,1.25.13,3.64.8,4.61,1.54ZM426.7,349.8c-46.45,13.44-34.67,98.07,18.58,83.81,44.7-11.97,35.09-99.34-18.58-83.81Z"/>
  <path class="cls-9" d="M359.66,361.92c-6.66-3.94-14.97-2.4-21.62.87-6.24,3.06-12.93,11.31-6.5,17.11,5.55,5.01,26.2,1.01,35.46,2.72,26.72,4.96,33.82,46.33,15.08,62.21-14.37,12.18-51.24,17.99-65.17,2.78-7.59-8.29-2.23-22.79,8.38-21.4,1.91.25,4.45,3.23,6.54,4.22,11.18,5.33,36.16,3.92,39.45-10.75,4.21-18.78-28.24-10.77-39.27-12.55-17.27-2.79-27.05-20.42-25.11-37.1,2.98-25.6,45.41-42.72,65.15-27.23,11.76,9.22,4.53,26.05-7.06,23.19-2.94-.73-3.67-3.1-5.33-4.08Z"/>
  <path class="cls-8" d="M667.93,355.52c.44.47,1.5,6.99,1.54,8.27.3,11.1-20.42,17.13-24.98,5.58-6.4,7.47-11.38,14.32-21.72,16.67-46.08,10.47-44.47-71.74-8.61-85.4,9.38-3.57,14.09-1.58,23.12-1.27,8.12.28,14.95-4.24,17.33,4.96,3.89,15.08,2.08,32.44,5.81,47.71,1.56,4.22,6.72,2.62,7.51,3.48ZM622.97,317.4c-11.9,4.85-20.46,49.51-1.93,49.54,12,.02,15.45-22.37,15.84-31.74.44-10.55.94-23.85-13.91-17.8Z"/>
  <path class="cls-7" d="M426.7,349.8c53.67-15.53,63.28,71.83,18.58,83.81-53.25,14.26-65.03-70.36-18.58-83.81ZM430.88,369.33c-14.4,5.55-14.87,40.38.25,45.2,26.93,8.58,28.08-56.13-.25-45.2Z"/>
  <path class="cls-6" d="M521.64,348.38c-.97-.74-3.36-1.41-4.61-1.54-18.87-2.01-20.98,42.79-3.79,45.41,11.15,1.7,24.17-5.33,24.33-17.31,14.81-2.3,10.5,16.74,4.42,24.48-9.9,12.6-30.81,17.35-45.01,9.45-26.86-14.94-23.39-64.24,2.87-77.95,9.36-4.88,22.23-7.18,31.98-2.19,11.02,5.64,16.47,25.83.03,26.71-7.25.39-6.55-4.26-10.21-7.06Z"/>
  <path class="cls-4" d="M686.28,254.19c8.73,7.45,4.13,21.18,5.34,45.54.9,18.15,4.59,33.15,8,43.86,3.84.62,8.05-3.64,10.76-1.66,12.31,22.22-26.59,39.63-33.98,12.2-6.02-22.34-5.84-36.42-7.91-54.38-3.36-29.1-12.74-39.45-6.12-46.16,5.28-5.35,17.37-4.98,23.92.61Z"/>
  <path class="cls-5" d="M572.37,317.67c2.19,1.67,3.19,10.74,3.61,13.88,2.33,17.38,1.13,35.65,5.57,52.8.86,3.31,2.04,5.85,4.33,8.39.25,2.92-23.57,15.75-28.48-1.41-4.71-16.45-1.72-41.53-4.58-59.04-.59-3.63-2.49-5.5-4.47-8.32,3.52-4.82,19.54-9.73,24.01-6.3Z"/>
  <path class="cls-3" d="M568.51,289.49c3.39,4.03,4.63,10.27,1.76,15.58-3.36,6.21-11.05,8.8-16.89,7.21-9.7-2.64-13.77-16.64-8.31-23.45,3.2-4,9.27-4.99,13.62-4.43,1.31.17,6.28.89,9.82,5.09Z"/>
  <path class="cls-10" d="M622.97,317.4c14.85-6.06,14.34,7.24,13.91,17.8-.39,9.37-3.83,31.76-15.84,31.74-18.53-.03-9.97-44.69,1.93-49.54Z"/>
  <path class="cls-10" d="M430.88,369.33c28.34-10.93,27.18,53.78.25,45.2-15.13-4.82-14.65-39.64-.25-45.2Z"/>
</svg>